{"glyphs":{"0":{"ha":833,"x_min":0,"x_max":0,"o":""},"1":{"ha":833,"x_min":0,"x_max":0,"o":""},"2":{"ha":833,"x_min":0,"x_max":0,"o":""},"3":{"ha":833,"x_min":0,"x_max":0,"o":""},"4":{"ha":833,"x_min":0,"x_max":0,"o":""},"5":{"ha":833,"x_min":0,"x_max":0,"o":""},"6":{"ha":833,"x_min":0,"x_max":0,"o":""},"7":{"ha":833,"x_min":0,"x_max":0,"o":""},"8":{"ha":833,"x_min":0,"x_max":0,"o":""},"9":{"ha":833,"x_min":0,"x_max":0,"o":""}," ":{"ha":833,"x_min":0,"x_max":0,"o":""},"A":{"ha":833,"x_min":1,"x_max":833,"o":"m 121 244 l 164 244 l 131 219 l 143 179 l 108 204 l 72 179 l 86 219 l 53 244 l 94 244 l 108 286 l 121 244 m 250 115 l 294 115 l 258 89 l 272 51 l 236 74 l 203 51 l 218 89 l 181 115 l 225 115 l 236 156 l 250 115 m 72 424 l 114 424 l 81 397 l 94 360 l 61 382 l 24 360 l 39 397 l 1 424 l 49 424 l 61 464 l 72 424 m 432 64 l 474 64 l 440 40 l 454 0 l 418 25 l 383 0 l 396 40 l 361 64 l 406 64 l 418 107 l 432 64 m 121 603 l 164 603 l 131 576 l 143 539 l 108 558 l 72 539 l 86 576 l 53 603 l 94 603 l 108 643 l 121 603 m 610 115 l 651 115 l 618 89 l 629 51 l 599 74 l 560 51 l 576 89 l 540 115 l 585 115 l 599 156 l 610 115 m 296 401 l 296 369 q 281 358 288 361 q 264 356 274 356 q 235 363 243 356 q 219 378 226 369 q 211 408 211 388 q 219 428 211 417 q 235 447 226 440 q 264 454 243 454 q 281 451 274 454 q 296 440 288 449 q 264 449 282 449 q 241 444 250 449 q 222 428 232 440 q 211 408 211 417 q 222 378 211 388 q 241 363 232 369 q 264 356 250 356 q 290 369 282 356 l 290 399 l 267 399 l 267 401 l 296 401 m 367 449 q 392 444 381 449 q 410 428 404 440 q 415 401 415 417 q 410 376 415 388 q 392 360 404 364 q 367 356 381 356 l 328 356 l 328 449 l 367 449 m 483 449 q 510 440 500 449 q 521 417 521 431 q 510 393 521 401 q 483 385 500 385 l 454 385 l 454 353 l 451 353 l 451 449 l 483 449 m 594 388 q 579 388 588 388 l 553 388 l 553 356 l 547 356 l 547 449 l 579 449 q 612 440 600 449 q 624 417 624 431 q 616 398 624 408 q 594 388 608 388 l 624 356 l 617 356 l 594 388 m 250 732 l 294 732 l 258 706 l 272 668 l 236 692 l 203 668 l 218 706 l 181 732 l 225 732 l 236 774 l 250 732 m 740 244 l 785 244 l 751 219 l 763 179 l 729 204 l 693 179 l 708 219 l 671 244 l 715 244 l 729 286 l 740 244 m 432 783 l 474 783 l 440 757 l 454 717 l 418 740 l 383 717 l 396 757 l 361 783 l 406 783 l 418 822 l 432 783 m 790 424 l 833 424 l 797 397 l 811 360 l 778 382 l 740 360 l 756 397 l 719 424 l 764 424 l 778 464 l 790 424 m 610 732 l 651 732 l 618 706 l 629 668 l 599 692 l 560 668 l 576 706 l 540 732 l 585 732 l 599 774 l 610 732 m 740 603 l 785 603 l 751 576 l 763 539 l 729 558 l 693 539 l 708 576 l 671 603 l 715 603 l 729 643 l 740 603 z "},"B":{"ha":833,"x_min":0,"x_max":0,"o":""},"C":{"ha":833,"x_min":0,"x_max":0,"o":""},"D":{"ha":833,"x_min":0,"x_max":0,"o":""},"E":{"ha":833,"x_min":0,"x_max":0,"o":""},"F":{"ha":833,"x_min":0,"x_max":0,"o":""},"G":{"ha":833,"x_min":0,"x_max":0,"o":""},"H":{"ha":833,"x_min":0,"x_max":0,"o":""},"I":{"ha":833,"x_min":0,"x_max":0,"o":""},"J":{"ha":833,"x_min":0,"x_max":0,"o":""},"K":{"ha":833,"x_min":0,"x_max":0,"o":""},"L":{"ha":833,"x_min":0,"x_max":0,"o":""},"M":{"ha":833,"x_min":0,"x_max":0,"o":""},"N":{"ha":833,"x_min":0,"x_max":0,"o":""},"O":{"ha":833,"x_min":0,"x_max":0,"o":""},"P":{"ha":833,"x_min":0,"x_max":0,"o":""},"Q":{"ha":833,"x_min":0,"x_max":0,"o":""},"R":{"ha":833,"x_min":0,"x_max":0,"o":""},"S":{"ha":833,"x_min":0,"x_max":0,"o":""},"T":{"ha":833,"x_min":0,"x_max":0,"o":""},"U":{"ha":833,"x_min":0,"x_max":0,"o":""},"V":{"ha":833,"x_min":0,"x_max":0,"o":""},"W":{"ha":833,"x_min":0,"x_max":0,"o":""},"X":{"ha":833,"x_min":0,"x_max":0,"o":""},"Y":{"ha":833,"x_min":0,"x_max":0,"o":""},"Z":{"ha":833,"x_min":0,"x_max":0,"o":""},"a":{"ha":833,"x_min":0,"x_max":0,"o":""},"b":{"ha":833,"x_min":0,"x_max":0,"o":""},"c":{"ha":833,"x_min":0,"x_max":0,"o":""},"d":{"ha":833,"x_min":0,"x_max":0,"o":""},"e":{"ha":833,"x_min":0,"x_max":0,"o":""},"f":{"ha":833,"x_min":0,"x_max":0,"o":""},"g":{"ha":833,"x_min":0,"x_max":0,"o":""},"h":{"ha":833,"x_min":0,"x_max":0,"o":""},"i":{"ha":833,"x_min":0,"x_max":0,"o":""},"j":{"ha":833,"x_min":0,"x_max":0,"o":""},"k":{"ha":833,"x_min":0,"x_max":0,"o":""},"l":{"ha":833,"x_min":0,"x_max":0,"o":""},"m":{"ha":833,"x_min":0,"x_max":0,"o":""},"n":{"ha":833,"x_min":0,"x_max":0,"o":""},"o":{"ha":833,"x_min":0,"x_max":0,"o":""},"p":{"ha":833,"x_min":0,"x_max":0,"o":""},"q":{"ha":833,"x_min":0,"x_max":0,"o":""},"r":{"ha":833,"x_min":0,"x_max":0,"o":""},"s":{"ha":833,"x_min":0,"x_max":0,"o":""},"t":{"ha":833,"x_min":0,"x_max":0,"o":""},"u":{"ha":833,"x_min":0,"x_max":0,"o":""},"v":{"ha":833,"x_min":0,"x_max":0,"o":""},"w":{"ha":833,"x_min":0,"x_max":0,"o":""},"x":{"ha":833,"x_min":0,"x_max":0,"o":""},"y":{"ha":833,"x_min":0,"x_max":0,"o":""},"z":{"ha":833,"x_min":0,"x_max":0,"o":""},".":{"ha":833,"x_min":0,"x_max":0,"o":""},",":{"ha":833,"x_min":0,"x_max":0,"o":""},"-":{"ha":833,"x_min":0,"x_max":0,"o":""}}}
